0
SECTION
2
HEADER
9
$INSUNITS
70
4
9
$ACADVER
1
AC1014
9
$HANDSEED
5
FFFF
0
ENDSEC
0
SECTION
2
TABLES
0
TABLE
2
VPORT
5
8
100
AcDbSymbolTable
0
ENDTAB
0
TABLE
2
LTYPE
5
5
100
AcDbSymbolTable
0
LTYPE
5
14
100
AcDbSymbolTableRecord
100
AcDbLinetypeTableRecord
2
BYBLOCK
70
0
0
LTYPE
5
15
100
AcDbSymbolTableRecord
100
AcDbLinetypeTableRecord
2
BYLAYER
70
0
0
ENDTAB
0
TABLE
2
LAYER
5
2
100
AcDbSymbolTable
70
2
0
LAYER
5
50
100
AcDbSymbolTableRecord
100
AcDbLayerTableRecord
2
0
70
0
6
CONTINUOUS
0
ENDTAB
0
TABLE
2
STYLE
5
3
100
AcDbSymbolTable
70
1
0
STYLE
5
11
100
AcDbSymbolTableRecord
100
AcDbTextStyleTableRecord
2
STANDARD
70
0
0
ENDTAB
0
TABLE
2
VIEW
5
6
100
AcDbSymbolTable
70
0
0
ENDTAB
0
TABLE
2
UCS
5
7
100
AcDbSymbolTable
70
0
0
ENDTAB
0
TABLE
2
APPID
5
9
100
AcDbSymbolTable
70
2
0
APPID
5
12
100
AcDbSymbolTableRecord
100
AcDbRegAppTableRecord
2
ACAD
70
0
0
ENDTAB
0
TABLE
2
DIMSTYLE
5
A
100
AcDbSymbolTable
70
1
0
ENDTAB
0
TABLE
2
BLOCK_RECORD
5
1
100
AcDbSymbolTable
70
1
0
BLOCK_RECORD
5
1F
100
AcDbSymbolTableRecord
100
AcDbBlockTableRecord
2
*MODEL_SPACE
0
BLOCK_RECORD
5
1B
100
AcDbSymbolTableRecord
100
AcDbBlockTableRecord
2
*PAPER_SPACE
0
ENDTAB
0
ENDSEC
0
SECTION
2
BLOCKS
0
BLOCK
5
20
100
AcDbEntity
100
AcDbBlockBegin
2
*MODEL_SPACE
0
ENDBLK
5
21
100
AcDbEntity
100
AcDbBlockEnd
0
BLOCK
5
1C
100
AcDbEntity
100
AcDbBlockBegin
2
*PAPER_SPACE
0
ENDBLK
5
1D
100
AcDbEntity
100
AcDbBlockEnd
0
ENDSEC
0
SECTION
2
ENTITIES
0
LWPOLYLINE
5
100
100
AcDbEntity
8
0
100
AcDbPolyline
90
64
70
1
43
0.0
10
9.8968213115113493
20
0
10
0
20
0
10
0
20
13.600000000000001
10
193.59999999999999
20
13.600000000000001
10
193.59999999999999
20
6.6000000000000005
10
190
20
6.6000000000000094
10
190
20
3.6000000000000005
10
176.14682131151136
20
3.6000000000000005
10
176.14682131151136
20
0
10
171.14682131151136
20
0
10
171.14682131151136
20
3.6000000000000005
10
164.27182131151136
20
3.6000000000000005
10
164.27182131151136
20
0
10
159.27182131151136
20
0
10
159.27182131151136
20
3.6000000000000005
10
152.39682131151136
20
3.6000000000000005
10
152.39682131151136
20
0
10
147.39682131151136
20
0
10
147.39682131151136
20
3.6000000000000005
10
140.52182131151136
20
3.6000000000000005
10
140.52182131151136
20
0
10
135.52182131151136
20
0
10
135.52182131151136
20
3.6000000000000005
10
128.64682131151136
20
3.6000000000000005
10
128.64682131151136
20
0
10
123.64682131151135
20
0
10
123.64682131151135
20
3.6000000000000005
10
116.77182131151135
20
3.6000000000000005
10
116.77182131151135
20
0
10
111.77182131151135
20
0
10
111.77182131151135
20
3.6000000000000005
10
104.89682131151135
20
3.6000000000000005
10
104.89682131151135
20
0
10
99.896821311511346
20
0
10
99.896821311511346
20
3.6000000000000005
10
93.021821311511346
20
3.6000000000000005
10
93.021821311511346
20
0
10
88.021821311511346
20
0
10
88.021821311511346
20
3.6000000000000005
10
81.146821311511346
20
3.6000000000000005
10
81.146821311511346
20
0
10
76.146821311511346
20
0
10
76.146821311511346
20
3.6000000000000005
10
69.271821311511346
20
3.6000000000000005
10
69.271821311511346
20
0
10
64.271821311511346
20
0
10
64.271821311511346
20
3.6000000000000005
10
57.396821311511346
20
3.6000000000000005
10
57.396821311511346
20
0
10
52.396821311511346
20
0
10
52.396821311511346
20
3.6000000000000005
10
45.521821311511346
20
3.6000000000000005
10
45.521821311511346
20
0
10
40.521821311511346
20
0
10
40.521821311511346
20
3.6000000000000005
10
33.646821311511353
20
3.6000000000000005
10
33.646821311511353
20
0
10
28.646821311511349
20
0
10
28.646821311511346
20
3.6000000000000005
10
21.771821311511349
20
3.6000000000000005
10
21.771821311511349
20
0
10
16.771821311511349
20
0
10
16.771821311511346
20
3.6000000000000005
10
9.8968213115113493
20
3.6000000000000005
0
LWPOLYLINE
5
101
100
AcDbEntity
8
0
100
AcDbPolyline
90
4
70
1
43
0.0
10
182.94615803769986
20
10.962103064286419
10
164.02458830936274
20
10.962103064286419
10
164.02458830936274
20
6.0631489600558997
10
182.94615803769986
20
6.0631489600559014
0
LINE
5
102
100
AcDbEntity
8
0
100
AcDbLine
10
179.04952226690213
20
6.8126261081119299
30
0
11
178.2288324695007
21
8.8823875631709814
31
0
0
LINE
5
103
100
AcDbEntity
8
0
100
AcDbLine
10
178.2288324695007
20
8.8823875631709814
30
0
11
177.40363358072202
21
6.8126261081119299
31
0
0
LINE
5
104
100
AcDbEntity
8
0
100
AcDbLine
10
177.40363358072202
20
6.8126261081119299
30
0
11
176.44315658620755
21
6.8126261081119299
31
0
0
LINE
5
105
100
AcDbEntity
8
0
100
AcDbLine
10
176.44315658620755
20
6.8126261081119299
30
0
11
177.87710844091336
21
10.212626143874717
31
0
0
LINE
5
106
100
AcDbEntity
8
0
100
AcDbLine
10
177.87710844091336
20
10.212626143874717
30
0
11
178.58055679611127
21
10.212626143874717
31
0
0
LINE
5
107
100
AcDbEntity
8
0
100
AcDbLine
10
178.58055679611127
20
10.212626143874717
30
0
11
180.00999985746304
21
6.8126261081119299
31
0
0
LINE
5
108
100
AcDbEntity
8
0
100
AcDbLine
10
180.00999985746304
20
6.8126261081119299
30
0
11
179.04952226690213
21
6.8126261081119299
31
0
0
SPLINE
5
109
100
AcDbEntity
8
0
100
AcDbSpline
70
0
71
2
72
6
73
3
74
0
42
0.000000001
43
0.0000000001
44
0.0000000001
40
0
40
0
40
0
40
1
40
1
40
1
10
174.22007916978757
20
7.6829176988025427
30
0
10
174.36437605432431
20
7.565676256599021
30
0
10
174.5086735349075
20
7.5115647758861304
30
0
0
SPLINE
5
110
100
AcDbEntity
8
0
100
AcDbSpline
70
0
71
2
72
6
73
3
74
0
42
0.000000001
43
0.0000000001
44
0.0000000001
40
0
40
0
40
0
40
1
40
1
40
1
10
174.5086735349075
20
7.5115647758861304
30
0
10
174.65297041944424
20
7.4529442037959814
30
0
10
174.78824912122647
20
7.4529442037959814
30
0
0
SPLINE
5
111
100
AcDbEntity
8
0
100
AcDbSpline
70
0
71
2
72
6
73
3
74
0
42
0.000000001
43
0.0000000001
44
0.0000000001
40
0
40
0
40
0
40
1
40
1
40
1
10
174.78824912122647
20
7.4529442037959814
30
0
10
174.95960174611966
20
7.4529442037959814
30
0
10
175.06782470754544
20
7.5341114248653174
30
0
0
SPLINE
5
112
100
AcDbEntity
8
0
100
AcDbSpline
70
0
71
2
72
6
73
3
74
0
42
0.000000001
43
0.0000000001
44
0.0000000001
40
0
40
0
40
0
40
1
40
1
40
1
10
175.06782470754544
20
7.5341114248653174
30
0
10
175.17604766897122
20
7.6152783479114294
30
0
10
175.17604766897122
20
7.7460476602931738
30
0
0
SPLINE
5
113
100
AcDbEntity
8
0
100
AcDbSpline
70
0
71
2
72
6
73
3
74
0
42
0.000000001
43
0.0000000001
44
0.0000000001
40
0
40
0
40
0
40
1
40
1
40
1
10
175.17604766897122
20
7.7460476602931738
30
0
10
175.17604766897122
20
7.8362330641170264
30
0
10
175.12193618825833
20
7.8948539342303992
30
0
0
SPLINE
5
114
100
AcDbEntity
8
0
100
AcDbSpline
70
0
71
2
72
6
73
3
74
0
42
0.000000001
43
0.0000000001
44
0.0000000001
40
0
40
0
40
0
40
1
40
1
40
1
10
175.12193618825833
20
7.8948539342303992
30
0
10
175.06782470754544
20
7.953474804343772
30
0
10
174.98214839509885
20
7.9985675062556982
30
0
0
SPLINE
5
115
100
AcDbEntity
8
0
100
AcDbSpline
70
0
71
2
72
6
73
3
74
0
42
0.000000001
43
0.0000000001
44
0.0000000001
40
0
40
0
40
0
40
1
40
1
40
1
10
174.98214839509885
20
7.9985675062556982
30
0
10
174.89196239522855
20
8.0391511167903662
30
0
10
174.78373943380277
20
8.0707159485240698
30
0
0
SPLINE
5
116
100
AcDbEntity
8
0
100
AcDbSpline
70
0
71
2
72
6
73
3
74
0
42
0.000000001
43
0.0000000001
44
0.0000000001
40
0
40
0
40
0
40
1
40
1
40
1
10
174.78373943380277
20
8.0707159485240698
30
0
10
174.67100738099973
20
8.1022807802577734
30
0
10
174.56278501562039
20
8.1383552994151831
30
0
0
SPLINE
5
117
100
AcDbEntity
8
0
100
AcDbSpline
70
0
71
2
72
6
73
3
74
0
42
0.000000001
43
0.0000000001
44
0.0000000001
40
0
40
0
40
0
40
1
40
1
40
1
10
174.56278501562039
20
8.1383552994151831
30
0
10
174.12989316991727
20
8.2826521839519263
30
0
10
173.93148480466763
20
8.5261538471599341
30
0
0
SPLINE
5
118
100
AcDbEntity
8
0
100
AcDbSpline
70
0
71
2
72
6
73
3
74
0
42
0.000000001
43
0.0000000001
44
0.0000000001
40
0
40
0
40
0
40
1
40
1
40
1
10
173.93148480466763
20
8.5261538471599341
30
0
10
173.72856734804074
20
8.7651458229442358
30
0
10
173.72856734804074
20
9.1529443706889868
30
0
0
SPLINE
5
119
100
AcDbEntity
8
0
100
AcDbSpline
70
0
71
2
72
6
73
3
74
0
42
0.000000001
43
0.0000000001
44
0.0000000001
40
0
40
0
40
0
40
1
40
1
40
1
10
173.72856734804074
20
9.1529443706889868
30
0
10
173.72856734804074
20
9.4144829954524756
30
0
10
173.81875275186459
20
9.626419230880332
30
0
0
SPLINE
5
120
100
AcDbEntity
8
0
100
AcDbSpline
70
0
71
2
72
6
73
3
74
0
42
0.000000001
43
0.0000000001
44
0.0000000001
40
0
40
0
40
0
40
1
40
1
40
1
10
173.81875275186459
20
9.626419230880332
30
0
10
173.90442906431119
20
9.8383554663081885
30
0
10
174.07578228525082
20
9.991671129645896
30
0
0
SPLINE
5
121
100
AcDbEntity
8
0
100
AcDbSpline
70
0
71
2
72
6
73
3
74
0
42
0.000000001
43
0.0000000001
44
0.0000000001
40
0
40
0
40
0
40
1
40
1
40
1
10
174.07578228525082
20
9.991671129645896
30
0
10
174.24262581876675
20
10.140477701606345
30
0
10
174.49063597730557
20
10.221644922675681
30
0
0
SPLINE
5
122
100
AcDbEntity
8
0
100
AcDbSpline
70
0
71
2
72
6
73
3
74
0
42
0.000000001
43
0.0000000001
44
0.0000000001
40
0
40
0
40
0
40
1
40
1
40
1
10
174.49063597730557
20
10.221644922675681
30
0
10
174.73413764051358
20
10.307321235122275
30
0
10
175.04527805856625
20
10.307321235122275
30
0
0
SPLINE
5
123
100
AcDbEntity
8
0
100
AcDbSpline
70
0
71
2
72
6
73
3
74
0
42
0.000000001
43
0.0000000001
44
0.0000000001
40
0
40
0
40
0
40
1
40
1
40
1
10
175.04527805856625
20
10.307321235122275
30
0
10
175.69010554365079
20
10.307321235122275
30
0
10
176.24023853353421
20
9.9240317787547827
30
0
0
LINE
5
124
100
AcDbEntity
8
0
100
AcDbLine
10
176.24023853353421
20
9.9240317787547827
30
0
11
175.86145816854398
21
9.2115649427791357
31
0
0
SPLINE
5
125
100
AcDbEntity
8
0
100
AcDbSpline
70
0
71
2
72
6
73
3
74
0
42
0.000000001
43
0.0000000001
44
0.0000000001
40
0
40
0
40
0
40
1
40
1
40
1
10
175.86145816854398
20
9.2115649427791357
30
0
10
175.66304980329434
20
9.3874272550960303
30
0
10
175.46915112546841
20
9.4731035675426245
30
0
0
SPLINE
5
126
100
AcDbEntity
8
0
100
AcDbSpline
70
0
71
2
72
6
73
3
74
0
42
0.000000001
43
0.0000000001
44
0.0000000001
40
0
40
0
40
0
40
1
40
1
40
1
10
175.46915112546841
20
9.4731035675426245
30
0
10
175.27525125554959
20
9.5587798799892187
30
0
10
175.08586166910092
20
9.5587798799892187
30
0
0
SPLINE
5
127
100
AcDbEntity
8
0
100
AcDbSpline
70
0
71
2
72
6
73
3
74
0
42
0.000000001
43
0.0000000001
44
0.0000000001
40
0
40
0
40
0
40
1
40
1
40
1
10
175.08586166910092
20
9.5587798799892187
30
0
10
174.86941634229581
20
9.5587798799892187
30
0
10
174.76570247224728
20
9.4595756973644018
30
0
0
SPLINE
5
128
100
AcDbEntity
8
0
100
AcDbSpline
70
0
71
2
72
6
73
3
74
0
42
0.000000001
43
0.0000000001
44
0.0000000001
40
0
40
0
40
0
40
1
40
1
40
1
10
174.76570247224728
20
9.4595756973644018
30
0
10
174.6574795108215
20
9.360371514739585
30
0
10
174.6574795108215
20
9.2341115917583227
30
0
0
SPLINE
5
129
100
AcDbEntity
8
0
100
AcDbSpline
70
0
71
2
72
6
73
3
74
0
42
0.000000001
43
0.0000000001
44
0.0000000001
40
0
40
0
40
0
40
1
40
1
40
1
10
174.6574795108215
20
9.2341115917583227
30
0
10
174.6574795108215
20
9.1574534620662451
30
0
10
174.68453525117795
20
9.1033422793765784
30
0
0
SPLINE
5
130
100
AcDbEntity
8
0
100
AcDbSpline
70
0
71
2
72
6
73
3
74
0
42
0.000000001
43
0.0000000001
44
0.0000000001
40
0
40
0
40
0
40
1
40
1
40
1
10
174.68453525117795
20
9.1033422793765784
30
0
10
174.71159099153439
20
9.0447214092632056
30
0
10
174.77472125104825
20
8.9996287073512793
30
0
0
SPLINE
5
131
100
AcDbEntity
8
0
100
AcDbSpline
70
0
71
2
72
6
73
3
74
0
42
0.000000001
43
0.0000000001
44
0.0000000001
40
0
40
0
40
0
40
1
40
1
40
1
10
174.77472125104825
20
8.9996287073512793
30
0
10
174.83785091451566
20
8.950026318015647
30
0
10
174.94156478456418
20
8.909442707480979
30
0
0
SPLINE
5
132
100
AcDbEntity
8
0
100
AcDbSpline
70
0
71
2
72
6
73
3
74
0
42
0.000000001
43
0.0000000001
44
0.0000000001
40
0
40
0
40
0
40
1
40
1
40
1
10
174.94156478456418
20
8.909442707480979
30
0
10
175.040768967189
20
8.8688593949695349
30
0
10
175.18506585172574
20
8.8192573036571265
30
0
0
SPLINE
5
133
100
AcDbEntity
8
0
100
AcDbSpline
70
0
71
2
72
6
73
3
74
0
42
0.000000001
43
0.0000000001
44
0.0000000001
40
0
40
0
40
0
40
1
40
1
40
1
10
175.18506585172574
20
8.8192573036571265
30
0
10
175.35641847661893
20
8.7651458229442358
30
0
10
175.52326260618131
20
8.7020158614536047
30
0
0
SPLINE
5
134
100
AcDbEntity
8
0
100
AcDbSpline
70
0
71
2
72
6
73
3
74
0
42
0.000000001
43
0.0000000001
44
0.0000000001
40
0
40
0
40
0
40
1
40
1
40
1
10
175.52326260618131
20
8.7020158614536047
30
0
10
175.68559645227353
20
8.6343765105624914
30
0
10
175.8163660626785
20
8.5261538471599341
30
0
0
SPLINE
5
135
100
AcDbEntity
8
0
100
AcDbSpline
70
0
71
2
72
6
73
3
74
0
42
0.000000001
43
0.0000000001
44
0.0000000001
40
0
40
0
40
0
40
1
40
1
40
1
10
175.8163660626785
20
8.5261538471599341
30
0
10
175.94262538961331
20
8.4179308857341528
30
0
10
176.02379261068265
20
8.2555967416187048
30
0
0
SPLINE
5
136
100
AcDbEntity
8
0
100
AcDbSpline
70
0
71
2
72
6
73
3
74
0
42
0.000000001
43
0.0000000001
44
0.0000000001
40
0
40
0
40
0
40
1
40
1
40
1
10
176.02379261068265
20
8.2555967416187048
30
0
10
176.10045074037473
20
8.0887532081027747
30
0
10
176.10045074037473
20
7.8362330641170264
30
0
0
SPLINE
5
137
100
AcDbEntity
8
0
100
AcDbSpline
70
0
71
2
72
6
73
3
74
0
42
0.000000001
43
0.0000000001
44
0.0000000001
40
0
40
0
40
0
40
1
40
1
40
1
10
176.10045074037473
20
7.8362330641170264
30
0
10
176.10045074037473
20
7.5837135161777258
30
0
10
176.01928351930539
20
7.3807957615276099
30
0
0
SPLINE
5
138
100
AcDbEntity
8
0
100
AcDbSpline
70
0
71
2
72
6
73
3
74
0
42
0.000000001
43
0.0000000001
44
0.0000000001
40
0
40
0
40
0
40
1
40
1
40
1
10
176.01928351930539
20
7.3807957615276099
30
0
10
175.9336072068588
20
7.1733686174770117
30
0
10
175.78480063489835
20
7.0290714349170447
30
0
0
SPLINE
5
139
100
AcDbEntity
8
0
100
AcDbSpline
70
0
71
2
72
6
73
3
74
0
42
0.000000001
43
0.0000000001
44
0.0000000001
40
0
40
0
40
0
40
1
40
1
40
1
10
175.78480063489835
20
7.0290714349170447
30
0
10
175.63148497156064
20
6.8802651609798193
30
0
10
175.41503964475552
20
6.7990979399104834
30
0
0
SPLINE
5
140
100
AcDbEntity
8
0
100
AcDbSpline
70
0
71
2
72
6
73
3
74
0
42
0.000000001
43
0.0000000001
44
0.0000000001
40
0
40
0
40
0
40
1
40
1
40
1
10
175.41503964475552
20
6.7990979399104834
30
0
10
175.1940846305267
20
6.7179307188411475
30
0
10
174.9235278230087
20
6.7179307188411475
30
0
0
SPLINE
5
141
100
AcDbEntity
8
0
100
AcDbSpline
70
0
71
2
72
6
73
3
74
0
42
0.000000001
43
0.0000000001
44
0.0000000001
40
0
40
0
40
0
40
1
40
1
40
1
10
174.9235278230087
20
6.7179307188411475
30
0
10
174.67100738099973
20
6.7179307188411475
30
0
10
174.39594088605801
20
6.7900794591327429
30
0
0
SPLINE
5
142
100
AcDbEntity
8
0
100
AcDbSpline
70
0
71
2
72
6
73
3
74
0
42
0.000000001
43
0.0000000001
44
0.0000000001
40
0
40
0
40
0
40
1
40
1
40
1
10
174.39594088605801
20
6.7900794591327429
30
0
10
174.12087498716275
20
6.8577188100238562
30
0
10
173.86835514120023
20
6.9929972137828589
30
0
0
LINE
5
143
100
AcDbEntity
8
0
100
AcDbLine
10
173.86835514120023
20
6.9929972137828589
30
0
11
174.22007916978757
21
7.6829176988025427
31
0
0
LINE
5
144
100
AcDbEntity
8
0
100
AcDbLine
10
173.53015898279111
20
8.6659416403194189
30
0
11
172.23599492124478
21
8.6659416403194189
31
0
0
LINE
5
145
100
AcDbEntity
8
0
100
AcDbLine
10
172.23599492124478
20
8.6659416403194189
30
0
11
172.23599492124478
21
9.3468436445613623
31
0
0
LINE
5
146
100
AcDbEntity
8
0
100
AcDbLine
10
172.23599492124478
20
9.3468436445613623
30
0
11
173.53015898279111
21
9.3468436445613623
31
0
0
LINE
5
147
100
AcDbEntity
8
0
100
AcDbLine
10
173.53015898279111
20
9.3468436445613623
30
0
11
173.53015898279111
21
8.6659416403194189
31
0
0
SPLINE
5
148
100
AcDbEntity
8
0
100
AcDbSpline
70
0
71
2
72
6
73
3
74
0
42
0.000000001
43
0.0000000001
44
0.0000000001
40
0
40
0
40
0
40
1
40
1
40
1
10
171.27100764326016
20
8.5081168856044531
30
0
10
171.27100764326016
20
8.7335809912105322
30
0
10
171.23042403272549
20
8.9184614862819434
30
0
0
SPLINE
5
149
100
AcDbEntity
8
0
100
AcDbSpline
70
0
71
2
72
6
73
3
74
0
42
0.000000001
43
0.0000000001
44
0.0000000001
40
0
40
0
40
0
40
1
40
1
40
1
10
171.23042403272549
20
8.9184614862819434
30
0
10
171.18984042219083
20
9.1033422793765784
30
0
10
171.1176925759689
20
9.238620683135581
30
0
0
SPLINE
5
150
100
AcDbEntity
8
0
100
AcDbSpline
70
0
71
2
72
6
73
3
74
0
42
0.000000001
43
0.0000000001
44
0.0000000001
40
0
40
0
40
0
40
1
40
1
40
1
10
171.1176925759689
20
9.238620683135581
30
0
10
171.04103385023038
20
9.3738993849178076
30
0
10
170.9373205762283
20
9.4505572165866614
30
0
0
SPLINE
5
151
100
AcDbEntity
8
0
100
AcDbSpline
70
0
71
2
72
6
73
3
74
0
42
0.000000001
43
0.0000000001
44
0.0000000001
40
0
40
0
40
0
40
1
40
1
40
1
10
170.9373205762283
20
9.4505572165866614
30
0
10
170.83360730222623
20
9.522705658855033
30
0
10
170.70283709577481
20
9.522705658855033
30
0
0
SPLINE
5
152
100
AcDbEntity
8
0
100
AcDbSpline
70
0
71
2
72
6
73
3
74
0
42
0.000000001
43
0.0000000001
44
0.0000000001
40
0
40
0
40
0
40
1
40
1
40
1
10
170.70283709577481
20
9.522705658855033
30
0
10
170.57657776884
20
9.522705658855033
30
0
10
170.47286449483792
20
9.4505572165866614
30
0
0
SPLINE
5
153
100
AcDbEntity
8
0
100
AcDbSpline
70
0
71
2
72
6
73
3
74
0
42
0.000000001
43
0.0000000001
44
0.0000000001
40
0
40
0
40
0
40
1
40
1
40
1
10
170.47286449483792
20
9.4505572165866614
30
0
10
170.36464153341214
20
9.3738993849178076
30
0
10
170.29249249509732
20
9.238620683135581
30
0
0
SPLINE
5
154
100
AcDbEntity
8
0
100
AcDbSpline
70
0
71
2
72
6
73
3
74
0
42
0.000000001
43
0.0000000001
44
0.0000000001
40
0
40
0
40
0
40
1
40
1
40
1
10
170.29249249509732
20
9.238620683135581
30
0
10
170.2203446488754
20
9.1033422793765784
30
0
10
170.17976103834073
20
8.9184614862819434
30
0
0
SPLINE
5
155
100
AcDbEntity
8
0
100
AcDbSpline
70
0
71
2
72
6
73
3
74
0
42
0.000000001
43
0.0000000001
44
0.0000000001
40
0
40
0
40
0
40
1
40
1
40
1
10
170.17976103834073
20
8.9184614862819434
30
0
10
170.13917742780606
20
8.7335809912105322
30
0
10
170.13917742780606
20
8.5081168856044531
30
0
0
SPLINE
5
156
100
AcDbEntity
8
0
100
AcDbSpline
70
0
71
2
72
6
73
3
74
0
42
0.000000001
43
0.0000000001
44
0.0000000001
40
0
40
0
40
0
40
1
40
1
40
1
10
170.13917742780606
20
8.5081168856044531
30
0
10
170.13917742780606
20
8.2871618713756323
30
0
10
170.17976103834073
20
8.1022810782809973
30
0
0
SPLINE
5
157
100
AcDbEntity
8
0
100
AcDbSpline
70
0
71
2
72
6
73
3
74
0
42
0.000000001
43
0.0000000001
44
0.0000000001
40
0
40
0
40
0
40
1
40
1
40
1
10
170.17976103834073
20
8.1022810782809973
30
0
10
170.2203446488754
20
7.912891193809104
30
0
10
170.29249249509732
20
7.7821221794505835
30
0
0
SPLINE
5
158
100
AcDbEntity
8
0
100
AcDbSpline
70
0
71
2
72
6
73
3
74
0
42
0.000000001
43
0.0000000001
44
0.0000000001
40
0
40
0
40
0
40
1
40
1
40
1
10
170.29249249509732
20
7.7821221794505835
30
0
10
170.36464153341214
20
7.6468434776683569
30
0
10
170.47286449483792
20
7.5746950353999853
30
0
0
SPLINE
5
159
100
AcDbEntity
8
0
100
AcDbSpline
70
0
71
2
72
6
73
3
74
0
42
0.000000001
43
0.0000000001
44
0.0000000001
40
0
40
0
40
0
40
1
40
1
40
1
10
170.47286449483792
20
7.5746950353999853
30
0
10
170.57657776884
20
7.4980372037311316
30
0
10
170.70283709577481
20
7.4980372037311316
30
0
0
SPLINE
5
160
100
AcDbEntity
8
0
100
AcDbSpline
70
0
71
2
72
6
73
3
74
0
42
0.000000001
43
0.0000000001
44
0.0000000001
40
0
40
0
40
0
40
1
40
1
40
1
10
170.70283709577481
20
7.4980372037311316
30
0
10
170.83360730222623
20
7.4980372037311316
30
0
10
170.9373205762283
20
7.5746950353999853
30
0
0
SPLINE
5
161
100
AcDbEntity
8
0
100
AcDbSpline
70
0
71
2
72
6
73
3
74
0
42
0.000000001
43
0.0000000001
44
0.0000000001
40
0
40
0
40
0
40
1
40
1
40
1
10
170.9373205762283
20
7.5746950353999853
30
0
10
171.04103385023038
20
7.6468434776683569
30
0
10
171.1176925759689
20
7.7821221794505835
30
0
0
SPLINE
5
162
100
AcDbEntity
8
0
100
AcDbSpline
70
0
71
2
72
6
73
3
74
0
42
0.000000001
43
0.0000000001
44
0.0000000001
40
0
40
0
40
0
40
1
40
1
40
1
10
171.1176925759689
20
7.7821221794505835
30
0
10
171.18984042219083
20
7.912891193809104
30
0
10
171.23042403272549
20
8.1022810782809973
30
0
0
SPLINE
5
163
100
AcDbEntity
8
0
100
AcDbSpline
70
0
71
2
72
6
73
3
74
0
42
0.000000001
43
0.0000000001
44
0.0000000001
40
0
40
0
40
0
40
1
40
1
40
1
10
171.23042403272549
20
8.1022810782809973
30
0
10
171.27100764326016
20
8.2871618713756323
30
0
10
171.27100764326016
20
8.5081168856044531
30
0
0
SPLINE
5
164
100
AcDbEntity
8
0
100
AcDbSpline
70
0
71
2
72
6
73
3
74
0
42
0.000000001
43
0.0000000001
44
0.0000000001
40
0
40
0
40
0
40
1
40
1
40
1
10
172.14580832532803
20
8.5081168856044531
30
0
10
172.14580832532803
20
8.1022810782809973
30
0
10
172.04209505132596
20
7.7731034006496191
30
0
0
SPLINE
5
165
100
AcDbEntity
8
0
100
AcDbSpline
70
0
71
2
72
6
73
3
74
0
42
0.000000001
43
0.0000000001
44
0.0000000001
40
0
40
0
40
0
40
1
40
1
40
1
10
172.04209505132596
20
7.7731034006496191
30
0
10
171.93387208990018
20
7.4394166316409827
30
0
10
171.74448309949796
20
7.2049337472339392
30
0
0
SPLINE
5
166
100
AcDbEntity
8
0
100
AcDbSpline
70
0
71
2
72
6
73
3
74
0
42
0.000000001
43
0.0000000001
44
0.0000000001
40
0
40
0
40
0
40
1
40
1
40
1
10
171.74448309949796
20
7.2049337472339392
30
0
10
171.55058322957913
20
6.9704508628268957
30
0
10
171.2890440087692
20
6.8441909398456335
30
0
0
SPLINE
5
167
100
AcDbEntity
8
0
100
AcDbSpline
70
0
71
2
72
6
73
3
74
0
42
0.000000001
43
0.0000000001
44
0.0000000001
40
0
40
0
40
0
40
1
40
1
40
1
10
171.2890440087692
20
6.8441909398456335
30
0
10
171.02299748472134
20
6.713421925487113
30
0
10
170.70283709577481
20
6.713421925487113
30
0
0
SPLINE
5
168
100
AcDbEntity
8
0
100
AcDbSpline
70
0
71
2
72
6
73
3
74
0
42
0.000000001
43
0.0000000001
44
0.0000000001
40
0
40
0
40
0
40
1
40
1
40
1
10
170.70283709577481
20
6.713421925487113
30
0
10
170.38718758634488
20
6.713421925487113
30
0
10
170.12113987020413
20
6.8441909398456335
30
0
0
SPLINE
5
169
100
AcDbEntity
8
0
100
AcDbSpline
70
0
71
2
72
6
73
3
74
0
42
0.000000001
43
0.0000000001
44
0.0000000001
40
0
40
0
40
0
40
1
40
1
40
1
10
170.12113987020413
20
6.8441909398456335
30
0
10
169.85509215406339
20
6.9704508628268957
30
0
10
169.66570197156827
20
7.2049337472339392
30
0
0
SPLINE
5
170
100
AcDbEntity
8
0
100
AcDbSpline
70
0
71
2
72
6
73
3
74
0
42
0.000000001
43
0.0000000001
44
0.0000000001
40
0
40
0
40
0
40
1
40
1
40
1
10
169.66570197156827
20
7.2049337472339392
30
0
10
169.47631298116605
20
7.4394166316409827
30
0
10
169.37259970716397
20
7.7731034006496191
30
0
0
SPLINE
5
171
100
AcDbEntity
8
0
100
AcDbSpline
70
0
71
2
72
6
73
3
74
0
42
0.000000001
43
0.0000000001
44
0.0000000001
40
0
40
0
40
0
40
1
40
1
40
1
10
169.37259970716397
20
7.7731034006496191
30
0
10
169.26437674573819
20
8.1022810782809973
30
0
10
169.26437674573819
20
8.5081168856044531
30
0
0
SPLINE
5
172
100
AcDbEntity
8
0
100
AcDbSpline
70
0
71
2
72
6
73
3
74
0
42
0.000000001
43
0.0000000001
44
0.0000000001
40
0
40
0
40
0
40
1
40
1
40
1
10
169.26437674573819
20
8.5081168856044531
30
0
10
169.26437674573819
20
8.9139523949046851
30
0
10
169.37259970716397
20
9.2476394619365454
30
0
0
SPLINE
5
173
100
AcDbEntity
8
0
100
AcDbSpline
70
0
71
2
72
6
73
3
74
0
42
0.000000001
43
0.0000000001
44
0.0000000001
40
0
40
0
40
0
40
1
40
1
40
1
10
169.37259970716397
20
9.2476394619365454
30
0
10
169.47631298116605
20
9.5768171395679236
30
0
10
169.66570197156827
20
9.8158094133754492
30
0
0
SPLINE
5
174
100
AcDbEntity
8
0
100
AcDbSpline
70
0
71
2
72
6
73
3
74
0
42
0.000000001
43
0.0000000001
44
0.0000000001
40
0
40
0
40
0
40
1
40
1
40
1
10
169.66570197156827
20
9.8158094133754492
30
0
10
169.85509215406339
20
10.050291701736045
30
0
10
170.12113987020413
20
10.181061312141013
30
0
0
SPLINE
5
175
100
AcDbEntity
8
0
100
AcDbSpline
70
0
71
2
72
6
73
3
74
0
42
0.000000001
43
0.0000000001
44
0.0000000001
40
0
40
0
40
0
40
1
40
1
40
1
10
170.12113987020413
20
10.181061312141013
30
0
10
170.38718758634488
20
10.307321235122275
30
0
10
170.70283709577481
20
10.307321235122275
30
0
0
SPLINE
5
176
100
AcDbEntity
8
0
100
AcDbSpline
70
0
71
2
72
6
73
3
74
0
42
0.000000001
43
0.0000000001
44
0.0000000001
40
0
40
0
40
0
40
1
40
1
40
1
10
170.70283709577481
20
10.307321235122275
30
0
10
171.02299748472134
20
10.307321235122275
30
0
10
171.2890440087692
20
10.181061312141013
30
0
0
SPLINE
5
177
100
AcDbEntity
8
0
100
AcDbSpline
70
0
71
2
72
6
73
3
74
0
42
0.000000001
43
0.0000000001
44
0.0000000001
40
0
40
0
40
0
40
1
40
1
40
1
10
171.2890440087692
20
10.181061312141013
30
0
10
171.55058322957913
20
10.050291701736045
30
0
10
171.74448309949796
20
9.8158094133754492
30
0
0
SPLINE
5
178
100
AcDbEntity
8
0
100
AcDbSpline
70
0
71
2
72
6
73
3
74
0
42
0.000000001
43
0.0000000001
44
0.0000000001
40
0
40
0
40
0
40
1
40
1
40
1
10
171.74448309949796
20
9.8158094133754492
30
0
10
171.93387208990018
20
9.5768171395679236
30
0
10
172.04209505132596
20
9.2476394619365454
30
0
0
SPLINE
5
179
100
AcDbEntity
8
0
100
AcDbSpline
70
0
71
2
72
6
73
3
74
0
42
0.000000001
43
0.0000000001
44
0.0000000001
40
0
40
0
40
0
40
1
40
1
40
1
10
172.04209505132596
20
9.2476394619365454
30
0
10
172.14580832532803
20
8.9139523949046851
30
0
10
172.14580832532803
20
8.5081168856044531
30
0
0
LINE
5
180
100
AcDbEntity
8
0
100
AcDbLine
10
167.97472058347623
20
7.5611671652217627
30
0
11
168.47074209264676
21
7.5611671652217627
31
0
0
LINE
5
181
100
AcDbEntity
8
0
100
AcDbLine
10
168.47074209264676
20
7.5611671652217627
30
0
11
168.47074209264676
21
6.8126261081119299
31
0
0
LINE
5
182
100
AcDbEntity
8
0
100
AcDbLine
10
168.47074209264676
20
6.8126261081119299
30
0
11
167.09090052656094
21
6.8126261081119299
31
0
0
LINE
5
183
100
AcDbEntity
8
0
100
AcDbLine
10
167.09090052656094
20
6.8126261081119299
30
0
11
167.09090052656094
21
10.212626143874717
31
0
0
LINE
5
184
100
AcDbEntity
8
0
100
AcDbLine
10
167.09090052656094
20
10.212626143874717
30
0
11
167.97472058347623
21
10.212626143874717
31
0
0
LINE
5
185
100
AcDbEntity
8
0
100
AcDbLine
10
167.97472058347623
20
10.212626143874717
30
0
11
167.97472058347623
21
7.5611671652217627
31
0
0
LINE
5
186
100
AcDbEntity
8
0
100
AcDbLine
10
164.90840850881497
20
7.5611671652217627
30
0
11
165.4044300179855
21
7.5611671652217627
31
0
0
LINE
5
187
100
AcDbEntity
8
0
100
AcDbLine
10
165.4044300179855
20
7.5611671652217627
30
0
11
165.4044300179855
21
6.8126261081119299
31
0
0
LINE
5
188
100
AcDbEntity
8
0
100
AcDbLine
10
165.4044300179855
20
6.8126261081119299
30
0
11
164.02458845189969
21
6.8126261081119299
31
0
0
LINE
5
189
100
AcDbEntity
8
0
100
AcDbLine
10
164.02458845189969
20
6.8126261081119299
30
0
11
164.02458845189969
21
10.212626143874717
31
0
0
LINE
5
190
100
AcDbEntity
8
0
100
AcDbLine
10
164.02458845189969
20
10.212626143874717
30
0
11
164.90840850881497
21
10.212626143874717
31
0
0
LINE
5
191
100
AcDbEntity
8
0
100
AcDbLine
10
164.90840850881497
20
10.212626143874717
30
0
11
164.90840850881497
21
7.5611671652217627
31
0
0
ENDSEC
0
SECTION
2
OBJECTS
0
DICTIONARY
5
C
100
AcDbDictionary
3
ACAD_GROUP
350
D
3
ACAD_MLINESTYLE
350
17
0
DICTIONARY
5
D
100
AcDbDictionary
0
DICTIONARY
5
1A
330
C
100
AcDbDictionary
0
DICTIONARY
5
17
100
AcDbDictionary
0
ENDSEC
0
EOF
