0
SECTION
2
HEADER
9
$INSUNITS
70
4
9
$ACADVER
1
AC1014
9
$HANDSEED
5
FFFF
0
ENDSEC
0
SECTION
2
TABLES
0
TABLE
2
VPORT
5
8
100
AcDbSymbolTable
0
ENDTAB
0
TABLE
2
LTYPE
5
5
100
AcDbSymbolTable
0
LTYPE
5
14
100
AcDbSymbolTableRecord
100
AcDbLinetypeTableRecord
2
BYBLOCK
70
0
0
LTYPE
5
15
100
AcDbSymbolTableRecord
100
AcDbLinetypeTableRecord
2
BYLAYER
70
0
0
ENDTAB
0
TABLE
2
LAYER
5
2
100
AcDbSymbolTable
70
2
0
LAYER
5
50
100
AcDbSymbolTableRecord
100
AcDbLayerTableRecord
2
0
70
0
6
CONTINUOUS
0
ENDTAB
0
TABLE
2
STYLE
5
3
100
AcDbSymbolTable
70
1
0
STYLE
5
11
100
AcDbSymbolTableRecord
100
AcDbTextStyleTableRecord
2
STANDARD
70
0
0
ENDTAB
0
TABLE
2
VIEW
5
6
100
AcDbSymbolTable
70
0
0
ENDTAB
0
TABLE
2
UCS
5
7
100
AcDbSymbolTable
70
0
0
ENDTAB
0
TABLE
2
APPID
5
9
100
AcDbSymbolTable
70
2
0
APPID
5
12
100
AcDbSymbolTableRecord
100
AcDbRegAppTableRecord
2
ACAD
70
0
0
ENDTAB
0
TABLE
2
DIMSTYLE
5
A
100
AcDbSymbolTable
70
1
0
ENDTAB
0
TABLE
2
BLOCK_RECORD
5
1
100
AcDbSymbolTable
70
1
0
BLOCK_RECORD
5
1F
100
AcDbSymbolTableRecord
100
AcDbBlockTableRecord
2
*MODEL_SPACE
0
BLOCK_RECORD
5
1B
100
AcDbSymbolTableRecord
100
AcDbBlockTableRecord
2
*PAPER_SPACE
0
ENDTAB
0
ENDSEC
0
SECTION
2
BLOCKS
0
BLOCK
5
20
100
AcDbEntity
100
AcDbBlockBegin
2
*MODEL_SPACE
0
ENDBLK
5
21
100
AcDbEntity
100
AcDbBlockEnd
0
BLOCK
5
1C
100
AcDbEntity
100
AcDbBlockBegin
2
*PAPER_SPACE
0
ENDBLK
5
1D
100
AcDbEntity
100
AcDbBlockEnd
0
ENDSEC
0
SECTION
2
ENTITIES
0
LINE
5
100
100
AcDbEntity
8
0
100
AcDbLine
10
190
20
18.927042385448956
30
0
11
193.59999999999999
21
18.927042385448956
31
0
0
LINE
5
101
100
AcDbEntity
8
0
100
AcDbLine
10
193.59999999999999
20
18.927042385448956
30
0
11
193.59999999999999
21
28.400000000000002
31
0
0
LINE
5
102
100
AcDbEntity
8
0
100
AcDbLine
10
0
20
24.800000000000004
30
0
11
0
21
0
31
0
0
LINE
5
103
100
AcDbEntity
8
0
100
AcDbLine
10
0
20
0
30
0
11
193.59999999999999
21
3.3896367021215351e-31
31
0
0
LINE
5
104
100
AcDbEntity
8
0
100
AcDbLine
10
193.59999999999999
20
3.3896367021215351e-31
30
0
11
193.59999999999999
21
3.9270423854489556
31
0
0
LINE
5
105
100
AcDbEntity
8
0
100
AcDbLine
10
193.59999999999999
20
3.9270423854489556
30
0
11
190
21
3.9270423854489556
31
0
0
LINE
5
106
100
AcDbEntity
8
0
100
AcDbLine
10
190
20
3.9270423854489556
30
0
11
190
21
8.9270423854489565
31
0
0
LINE
5
107
100
AcDbEntity
8
0
100
AcDbLine
10
190
20
8.9270423854489565
30
0
11
193.59999999999999
21
8.9270423854489565
31
0
0
LINE
5
108
100
AcDbEntity
8
0
100
AcDbLine
10
193.59999999999999
20
8.9270423854489565
30
0
11
193.59999999999999
21
13.927042385448956
31
0
0
LINE
5
109
100
AcDbEntity
8
0
100
AcDbLine
10
193.59999999999999
20
13.927042385448956
30
0
11
190
21
13.927042385448956
31
0
0
LINE
5
110
100
AcDbEntity
8
0
100
AcDbLine
10
190
20
13.927042385448956
30
0
11
190
21
18.927042385448956
31
0
0
LWPOLYLINE
5
111
100
AcDbEntity
8
0
100
AcDbPolyline
90
4
70
1
43
0.0
10
10.879288410102987
20
3.3552138576996349
10
10.879288410102987
20
21.355213857699631
10
48.57928841010299
20
21.355213857699631
10
48.57928841010299
20
3.3552138576996349
0
LWPOLYLINE
5
112
100
AcDbEntity
8
0
100
AcDbPolyline
90
70
70
1
43
0.0
10
190
20
13.927042385448956
10
193.59999999999999
20
13.927042385448956
10
193.59999999999999
20
8.9270423854489565
10
190
20
8.9270423854489565
10
190
20
3.9270423854489556
10
193.59999999999999
20
3.9270423854489556
10
193.59999999999999
20
0
10
0
20
0
10
4.8474526427295572e-16
20
24.800000000000004
10
9.8968213115113457
20
24.800000000000004
10
9.8968213115113457
20
28.400000000000002
10
16.771821311511349
20
28.400000000000002
10
16.771821311511346
20
24.800000000000004
10
21.771821311511346
20
24.800000000000004
10
21.771821311511346
20
28.400000000000002
10
28.646821311511349
20
28.400000000000002
10
28.646821311511346
20
24.800000000000004
10
33.646821311511346
20
24.800000000000004
10
33.646821311511346
20
28.400000000000002
10
40.521821311511346
20
28.400000000000002
10
40.521821311511346
20
24.800000000000004
10
45.521821311511346
20
24.800000000000004
10
45.521821311511346
20
28.400000000000002
10
52.396821311511346
20
28.400000000000002
10
52.396821311511346
20
24.800000000000004
10
57.396821311511346
20
24.800000000000004
10
57.396821311511346
20
28.400000000000002
10
64.271821311511346
20
28.400000000000002
10
64.271821311511346
20
24.800000000000004
10
69.271821311511346
20
24.800000000000004
10
69.271821311511346
20
28.400000000000002
10
76.146821311511346
20
28.400000000000002
10
76.146821311511346
20
24.800000000000004
10
81.146821311511346
20
24.800000000000004
10
81.146821311511346
20
28.400000000000002
10
88.021821311511346
20
28.400000000000002
10
88.021821311511346
20
24.800000000000004
10
93.021821311511346
20
24.800000000000004
10
93.021821311511346
20
28.400000000000002
10
99.896821311511346
20
28.400000000000002
10
99.896821311511346
20
24.800000000000004
10
104.89682131151135
20
24.800000000000004
10
104.89682131151135
20
28.400000000000002
10
111.77182131151135
20
28.400000000000002
10
111.77182131151135
20
24.800000000000004
10
116.77182131151135
20
24.800000000000004
10
116.77182131151135
20
28.400000000000002
10
123.64682131151135
20
28.400000000000002
10
123.64682131151135
20
24.800000000000004
10
128.64682131151136
20
24.800000000000004
10
128.64682131151136
20
28.400000000000002
10
135.52182131151136
20
28.400000000000002
10
135.52182131151136
20
24.800000000000004
10
140.52182131151136
20
24.800000000000004
10
140.52182131151136
20
28.400000000000002
10
147.39682131151136
20
28.400000000000002
10
147.39682131151136
20
24.800000000000004
10
152.39682131151136
20
24.800000000000004
10
152.39682131151136
20
28.400000000000002
10
159.27182131151136
20
28.400000000000002
10
159.27182131151136
20
24.800000000000004
10
164.27182131151136
20
24.800000000000004
10
164.27182131151136
20
28.400000000000002
10
171.14682131151136
20
28.400000000000002
10
171.14682131151136
20
24.800000000000004
10
176.14682131151136
20
24.800000000000004
10
176.14682131151136
20
28.400000000000002
10
193.59999999999999
20
28.400000000000002
10
193.59999999999999
20
18.927042385448956
10
190
20
18.927042385448956
0
LWPOLYLINE
5
113
100
AcDbEntity
8
0
100
AcDbPolyline
90
4
70
1
43
0.0
10
10.879288410102987
20
21.355213857699631
10
10.879288410102987
20
3.3552138576996349
10
48.57928841010299
20
3.3552138576996349
10
48.57928841010299
20
21.355213857699631
0
LINE
5
114
100
AcDbEntity
8
0
100
AcDbLine
10
193.59999999999999
20
28.400000000000002
30
0
11
176.14682131151136
21
28.400000000000002
31
0
0
LINE
5
115
100
AcDbEntity
8
0
100
AcDbLine
10
9.8968213115113493
20
28.400000000000002
30
0
11
9.8968213115113457
21
24.800000000000004
31
0
0
LINE
5
116
100
AcDbEntity
8
0
100
AcDbLine
10
176.14682131151136
20
24.800000000000004
30
0
11
171.14682131151136
21
24.800000000000004
31
0
0
LINE
5
117
100
AcDbEntity
8
0
100
AcDbLine
10
176.14682131151136
20
28.400000000000002
30
0
11
176.14682131151136
21
24.800000000000004
31
0
0
LINE
5
118
100
AcDbEntity
8
0
100
AcDbLine
10
171.14682131151136
20
24.800000000000004
30
0
11
171.14682131151136
21
28.400000000000002
31
0
0
LINE
5
119
100
AcDbEntity
8
0
100
AcDbLine
10
171.14682131151136
20
28.400000000000002
30
0
11
164.27182131151136
21
28.400000000000002
31
0
0
LINE
5
120
100
AcDbEntity
8
0
100
AcDbLine
10
164.27182131151136
20
28.400000000000002
30
0
11
164.27182131151136
21
24.800000000000004
31
0
0
LINE
5
121
100
AcDbEntity
8
0
100
AcDbLine
10
164.27182131151136
20
24.800000000000004
30
0
11
159.27182131151136
21
24.800000000000004
31
0
0
LINE
5
122
100
AcDbEntity
8
0
100
AcDbLine
10
159.27182131151136
20
24.800000000000004
30
0
11
159.27182131151136
21
28.400000000000002
31
0
0
LINE
5
123
100
AcDbEntity
8
0
100
AcDbLine
10
159.27182131151136
20
28.400000000000002
30
0
11
152.39682131151136
21
28.400000000000002
31
0
0
LINE
5
124
100
AcDbEntity
8
0
100
AcDbLine
10
152.39682131151136
20
28.400000000000002
30
0
11
152.39682131151136
21
24.800000000000004
31
0
0
LINE
5
125
100
AcDbEntity
8
0
100
AcDbLine
10
152.39682131151136
20
24.800000000000004
30
0
11
147.39682131151136
21
24.800000000000004
31
0
0
LINE
5
126
100
AcDbEntity
8
0
100
AcDbLine
10
147.39682131151136
20
24.800000000000004
30
0
11
147.39682131151136
21
28.400000000000002
31
0
0
LINE
5
127
100
AcDbEntity
8
0
100
AcDbLine
10
147.39682131151136
20
28.400000000000002
30
0
11
140.52182131151136
21
28.400000000000002
31
0
0
LINE
5
128
100
AcDbEntity
8
0
100
AcDbLine
10
140.52182131151136
20
28.400000000000002
30
0
11
140.52182131151136
21
24.800000000000004
31
0
0
LINE
5
129
100
AcDbEntity
8
0
100
AcDbLine
10
140.52182131151136
20
24.800000000000004
30
0
11
135.52182131151136
21
24.800000000000004
31
0
0
LINE
5
130
100
AcDbEntity
8
0
100
AcDbLine
10
135.52182131151136
20
24.800000000000004
30
0
11
135.52182131151136
21
28.400000000000002
31
0
0
LINE
5
131
100
AcDbEntity
8
0
100
AcDbLine
10
135.52182131151136
20
28.400000000000002
30
0
11
128.64682131151136
21
28.400000000000002
31
0
0
LINE
5
132
100
AcDbEntity
8
0
100
AcDbLine
10
128.64682131151136
20
28.400000000000002
30
0
11
128.64682131151136
21
24.800000000000004
31
0
0
LINE
5
133
100
AcDbEntity
8
0
100
AcDbLine
10
128.64682131151136
20
24.800000000000004
30
0
11
123.64682131151135
21
24.800000000000004
31
0
0
LINE
5
134
100
AcDbEntity
8
0
100
AcDbLine
10
123.64682131151135
20
24.800000000000004
30
0
11
123.64682131151135
21
28.400000000000002
31
0
0
LINE
5
135
100
AcDbEntity
8
0
100
AcDbLine
10
123.64682131151135
20
28.400000000000002
30
0
11
116.77182131151135
21
28.400000000000002
31
0
0
LINE
5
136
100
AcDbEntity
8
0
100
AcDbLine
10
116.77182131151135
20
28.400000000000002
30
0
11
116.77182131151135
21
24.800000000000004
31
0
0
LINE
5
137
100
AcDbEntity
8
0
100
AcDbLine
10
116.77182131151135
20
24.800000000000004
30
0
11
111.77182131151135
21
24.800000000000004
31
0
0
LINE
5
138
100
AcDbEntity
8
0
100
AcDbLine
10
111.77182131151135
20
24.800000000000004
30
0
11
111.77182131151135
21
28.400000000000002
31
0
0
LINE
5
139
100
AcDbEntity
8
0
100
AcDbLine
10
111.77182131151135
20
28.400000000000002
30
0
11
104.89682131151135
21
28.400000000000002
31
0
0
LINE
5
140
100
AcDbEntity
8
0
100
AcDbLine
10
104.89682131151135
20
28.400000000000002
30
0
11
104.89682131151135
21
24.800000000000004
31
0
0
LINE
5
141
100
AcDbEntity
8
0
100
AcDbLine
10
104.89682131151135
20
24.800000000000004
30
0
11
99.896821311511346
21
24.800000000000004
31
0
0
LINE
5
142
100
AcDbEntity
8
0
100
AcDbLine
10
99.896821311511346
20
24.800000000000004
30
0
11
99.896821311511346
21
28.400000000000002
31
0
0
LINE
5
143
100
AcDbEntity
8
0
100
AcDbLine
10
99.896821311511346
20
28.400000000000002
30
0
11
93.021821311511346
21
28.400000000000002
31
0
0
LINE
5
144
100
AcDbEntity
8
0
100
AcDbLine
10
93.021821311511346
20
28.400000000000002
30
0
11
93.021821311511346
21
24.800000000000004
31
0
0
LINE
5
145
100
AcDbEntity
8
0
100
AcDbLine
10
93.021821311511346
20
24.800000000000004
30
0
11
88.021821311511346
21
24.800000000000004
31
0
0
LINE
5
146
100
AcDbEntity
8
0
100
AcDbLine
10
88.021821311511346
20
24.800000000000004
30
0
11
88.021821311511346
21
28.400000000000002
31
0
0
LINE
5
147
100
AcDbEntity
8
0
100
AcDbLine
10
88.021821311511346
20
28.400000000000002
30
0
11
81.146821311511346
21
28.400000000000002
31
0
0
LINE
5
148
100
AcDbEntity
8
0
100
AcDbLine
10
81.146821311511346
20
28.400000000000002
30
0
11
81.146821311511346
21
24.800000000000004
31
0
0
LINE
5
149
100
AcDbEntity
8
0
100
AcDbLine
10
81.146821311511346
20
24.800000000000004
30
0
11
76.146821311511346
21
24.800000000000004
31
0
0
LINE
5
150
100
AcDbEntity
8
0
100
AcDbLine
10
76.146821311511346
20
24.800000000000004
30
0
11
76.146821311511346
21
28.400000000000002
31
0
0
LINE
5
151
100
AcDbEntity
8
0
100
AcDbLine
10
76.146821311511346
20
28.400000000000002
30
0
11
69.271821311511346
21
28.400000000000002
31
0
0
LINE
5
152
100
AcDbEntity
8
0
100
AcDbLine
10
69.271821311511346
20
28.400000000000002
30
0
11
69.271821311511346
21
24.800000000000004
31
0
0
LINE
5
153
100
AcDbEntity
8
0
100
AcDbLine
10
69.271821311511346
20
24.800000000000004
30
0
11
64.271821311511346
21
24.800000000000004
31
0
0
LINE
5
154
100
AcDbEntity
8
0
100
AcDbLine
10
64.271821311511346
20
24.800000000000004
30
0
11
64.271821311511346
21
28.400000000000002
31
0
0
LINE
5
155
100
AcDbEntity
8
0
100
AcDbLine
10
64.271821311511346
20
28.400000000000002
30
0
11
57.396821311511346
21
28.400000000000002
31
0
0
LINE
5
156
100
AcDbEntity
8
0
100
AcDbLine
10
57.396821311511346
20
28.400000000000002
30
0
11
57.396821311511346
21
24.800000000000004
31
0
0
LINE
5
157
100
AcDbEntity
8
0
100
AcDbLine
10
57.396821311511346
20
24.800000000000004
30
0
11
52.396821311511346
21
24.800000000000004
31
0
0
LINE
5
158
100
AcDbEntity
8
0
100
AcDbLine
10
52.396821311511346
20
24.800000000000004
30
0
11
52.396821311511346
21
28.400000000000002
31
0
0
LINE
5
159
100
AcDbEntity
8
0
100
AcDbLine
10
52.396821311511346
20
28.400000000000002
30
0
11
45.521821311511346
21
28.400000000000002
31
0
0
LINE
5
160
100
AcDbEntity
8
0
100
AcDbLine
10
45.521821311511346
20
28.400000000000002
30
0
11
45.521821311511346
21
24.800000000000004
31
0
0
LINE
5
161
100
AcDbEntity
8
0
100
AcDbLine
10
45.521821311511346
20
24.800000000000004
30
0
11
40.521821311511346
21
24.800000000000004
31
0
0
LINE
5
162
100
AcDbEntity
8
0
100
AcDbLine
10
40.521821311511346
20
24.800000000000004
30
0
11
40.521821311511346
21
28.400000000000002
31
0
0
LINE
5
163
100
AcDbEntity
8
0
100
AcDbLine
10
40.521821311511346
20
28.400000000000002
30
0
11
33.646821311511353
21
28.400000000000002
31
0
0
LINE
5
164
100
AcDbEntity
8
0
100
AcDbLine
10
33.646821311511353
20
28.400000000000002
30
0
11
33.646821311511346
21
24.800000000000004
31
0
0
LINE
5
165
100
AcDbEntity
8
0
100
AcDbLine
10
33.646821311511346
20
24.800000000000004
30
0
11
28.646821311511346
21
24.800000000000004
31
0
0
LINE
5
166
100
AcDbEntity
8
0
100
AcDbLine
10
28.646821311511346
20
24.800000000000004
30
0
11
28.646821311511349
21
28.400000000000002
31
0
0
LINE
5
167
100
AcDbEntity
8
0
100
AcDbLine
10
28.646821311511349
20
28.400000000000002
30
0
11
21.771821311511349
21
28.400000000000002
31
0
0
LINE
5
168
100
AcDbEntity
8
0
100
AcDbLine
10
21.771821311511349
20
28.400000000000002
30
0
11
21.771821311511346
21
24.800000000000004
31
0
0
LINE
5
169
100
AcDbEntity
8
0
100
AcDbLine
10
21.771821311511346
20
24.800000000000004
30
0
11
16.771821311511346
21
24.800000000000004
31
0
0
LINE
5
170
100
AcDbEntity
8
0
100
AcDbLine
10
16.771821311511346
20
24.800000000000004
30
0
11
16.771821311511349
21
28.400000000000002
31
0
0
LINE
5
171
100
AcDbEntity
8
0
100
AcDbLine
10
16.771821311511349
20
28.400000000000002
30
0
11
9.8968213115113493
21
28.400000000000002
31
0
0
LINE
5
172
100
AcDbEntity
8
0
100
AcDbLine
10
9.8968213115113457
20
24.800000000000004
30
0
11
0
21
24.800000000000004
31
0
0
ENDSEC
0
SECTION
2
OBJECTS
0
DICTIONARY
5
C
100
AcDbDictionary
3
ACAD_GROUP
350
D
3
ACAD_MLINESTYLE
350
17
0
DICTIONARY
5
D
100
AcDbDictionary
0
DICTIONARY
5
1A
330
C
100
AcDbDictionary
0
DICTIONARY
5
17
100
AcDbDictionary
0
ENDSEC
0
EOF
